Motion_pl01
version=1
nRows=13
nColumns=43
inDegrees=yes
endheader
time	pelvis_tilt	pelvis_list	pelvis_rotation	pelvis_tx	pelvis_ty	pelvis_tz	hip_flexion_r	hip_adduction_r	hip_rotation_r	knee_angle_r	ankle_angle_r	subtalar_angle_r	mtp_angle_r	hip_flexion_l	hip_adduction_l	hip_rotation_l	knee_angle_l	ankle_angle_l	subtalar_angle_l	mtp_angle_l	lumbar_extension	lumbar_bending	lumbar_rotation	neck_flexion	neck_lateral_bending	neck_rotation	arm_flex_r	arm_add_r	arm_rot_r	elbow_flex_r	pro_sup_r	wrist_flex_r	wrist_dev_r	hand_finger_flex_r	arm_flex_l	arm_add_l	arm_rot_l	elbow_flex_l	pro_sup_l	wrist_flex_l	wrist_dev_l	hand_finger_flex_l
      0.75000000	      1.48536562	     18.52757121	     88.26069076	     -0.02247481	      1.30952422	      0.69228380	      6.99597959	     -3.16183875	    -14.28713307	    -14.37455662	    -32.47112203	      4.42064921	     13.62384856	      3.63726691	     -5.39511165	    -16.54051045	    -16.19670676	    -30.14097920	     -8.78706642	     16.84699712	    -48.44086424	     -1.00389056	     -3.06757319	    -33.58267229	     -1.45656837	      3.07743658	    -53.04713453	    -27.68119059	     -8.89029561	     40.73102521	     90.53969241	    -13.10181932	      5.26351838	     27.33223758	    -56.48519301	    -19.38493336	    -21.60104958	     61.58139649	    105.80922611	    -22.35395178	      4.98828847	     66.63138778
      0.75250000	      1.47432178	     18.48543873	     88.24294460	     -0.02208912	      1.29961461	      0.68676351	      6.84052159	     -3.11641749	    -14.26981225	    -14.11882834	    -32.49221964	      4.41910812	     13.63116591	      3.54363574	     -5.43449481	    -16.43314329	    -15.95492688	    -30.18625212	     -8.74767640	     16.90392516	    -48.06333256	     -1.11604809	     -3.13436892	    -33.98355342	     -1.51961993	      3.04999575	    -54.05238148	    -27.36826799	     -9.10504282	     40.75659324	     90.49196974	    -13.00588643	      5.28104862	     27.41265876	    -57.60599358	    -19.18558722	    -21.71703589	     61.76634362	    105.77926813	    -22.39475054	      4.91318599	     66.68286055
      0.75500000	      1.42102806	     18.48228533	     88.23777314	     -0.02185253	      1.28969193	      0.68128649	      6.67629293	     -3.13159766	    -14.27539506	    -13.94183854	    -32.50267839	      4.36284280	     13.64570927	      3.45646683	     -5.42363554	    -16.28542315	    -15.80630795	    -30.22342834	     -8.67788385	     16.98370557	    -47.72747214	     -1.24694524	     -3.19496286	    -34.47327727	     -1.47015907	      3.04303046	    -55.10908167	    -26.96923299	     -9.63031041	     40.86427720	     90.28843777	    -12.86660203	      5.28750991	     27.54007755	    -58.66073778	    -18.92689668	    -21.94868561	     61.95872078	    105.72505868	    -22.48652330	      4.81366877	     66.70549307
      0.75750000	      1.35125721	     18.56045647	     88.32540794	     -0.02201688	      1.27977884	      0.67605947	      6.49175025	     -3.20590006	    -14.34715269	    -13.90446992	    -32.45185951	      4.19568682	     13.81515466	      3.34362886	     -5.37577765	    -16.05003849	    -15.74743943	    -30.19183226	     -8.52153167	     17.46094817	    -47.55909121	     -1.24233477	     -3.20307127	    -34.62654085	     -1.46794910	      3.00019425	    -56.18850610	    -26.12990484	    -11.49706072	     41.04665589	     89.95689548	    -12.30752842	      5.88842502	     27.97613154	    -59.47517142	    -18.77739106	    -22.01644575	     61.98928153	    105.69002584	    -22.66426422	      4.61402665	     66.67203259
      0.76000000	      1.33052891	     18.56234804	     88.30023220	     -0.02159314	      1.26979493	      0.67074801	      6.34972802	     -3.17979241	    -14.31227407	    -13.76873253	    -32.48976464	      4.16304292	     13.83162332	      3.27802992	     -5.41783824	    -15.90988008	    -15.64426932	    -30.24701078	     -8.47351491	     17.53542847	    -47.26975966	     -1.38023850	     -3.29124497	    -34.99810918	     -1.50735330	      2.98065931	    -57.01637140	    -25.79047852	    -11.86616660	     41.04110260	     89.84704044	    -12.23290400	      5.87704406	     28.03274332	    -60.45400643	    -18.56167526	    -22.18178229	     62.10634668	    105.63056026	    -22.71122331	      4.54987879	     66.68854530
      0.76250000	      1.23961276	     18.63563272	     88.41078383	     -0.02165766	      1.25982698	      0.66560757	      6.21440743	     -3.26730433	    -14.28340050	    -13.82653870	    -32.49257432	      3.94971269	     13.93340968	      3.21767208	     -5.36460427	    -15.67684119	    -15.66294596	    -30.23429989	     -8.34784662	     17.83740403	    -47.10431268	     -1.43255764	     -3.36540663	    -35.23913270	     -1.35913391	      2.98748845	    -57.89560084	    -25.07159281	    -13.24918601	     41.06984959	     89.39025270	    -11.93083878	      6.06131073	     28.23713931	    -61.19606757	    -18.34487917	    -22.42991124	     62.12421467	    105.50490348	    -22.82209840	      4.42314614	     66.64087535
      0.76500000	      1.22178406	     18.64178572	     88.33755191	     -0.02120656	      1.24978712	      0.66049011	      6.09610777	     -3.23550243	    -14.25992656	    -13.71717851	    -32.50279370	      3.89228659	     13.95585298	      3.16122208	     -5.40366675	    -15.49719724	    -15.59831149	    -30.25997509	     -8.29100946	     17.92047510	    -46.87506854	     -1.58552046	     -3.45138038	    -35.43609065	     -1.50374343	      2.99862123	    -58.51713113	    -24.72491619	    -13.72238790	     40.95695920	     89.19296461	    -11.85887013	      6.08910489	     28.28690778	    -62.05865331	    -18.15589010	    -22.51606682	     62.18625340	    105.45882458	    -22.84334788	      4.37233177	     66.65232513
      0.76750000	      1.13525952	     18.71320860	     88.46315737	     -0.02137674	      1.23974197	      0.65551276	      5.97531001	     -3.31847744	    -14.19779731	    -13.79522342	    -32.48225489	      3.61329226	     14.06763339	      3.12340729	     -5.34822240	    -15.20762373	    -15.64757820	    -30.16776039	     -8.15510702	     18.26960292	    -46.75510732	     -1.60042875	     -3.48951339	    -35.53254756	     -1.37344072	      3.00612059	    -59.24133547	    -23.92191481	    -15.32876448	     40.89427662	     88.51381598	    -11.53093677	      6.37591191	     28.46946636	    -62.61731985	    -17.99551965	    -22.72198556	     62.11912015	    105.32050790	    -22.94508874	      4.24736982	     66.58248414
      0.77000000	      1.12740865	     18.79112511	     88.47692481	     -0.02142289	      1.22970979	      0.65055596	      5.86284613	     -3.31560921	    -14.10806139	    -13.88622934	    -32.53207935	      3.42003302	     14.19245399	      3.08699496	     -5.37751720	    -14.93646980	    -15.76824646	    -30.11946279	     -8.06309004	     18.69031383	    -46.64512740	     -1.61408862	     -3.54624910	    -35.71541737	     -1.40370732	      2.95641770	    -59.80395256	    -23.34880705	    -16.59542315	     40.81392164	     88.11484193	    -11.28598835	      6.74260426	     28.50826865	    -63.19797309	    -17.82950818	    -22.77205828	     62.01756540	    105.18608264	    -23.01983151	      4.14795256	     66.51526308
      0.77250000	      1.11206482	     18.90261987	     88.49749362	     -0.02104007	      1.21978806	      0.64563057	      5.75028767	     -3.30473042	    -13.97400619	    -14.06457862	    -32.60819292	      3.38362047	     14.20911512	      3.02443443	     -5.44274144	    -14.75688993	    -15.90978080	    -30.11632456	     -8.02405159	     18.78940404	    -46.57308159	     -1.70972114	     -3.67448946	    -35.95324700	     -1.50260707	      2.99212496	    -60.19436538	    -22.98646294	    -17.07976614	     40.58728073	     87.89581336	    -11.29494126	      6.76450780	     28.49291637	    -63.76724461	    -17.65392193	    -22.92254327	     61.89037884	    105.13003097	    -23.08137157	      4.13519458	     66.49768209
      0.77500000	      1.04777157	     19.01925339	     88.53725402	     -0.02110586	      1.20980308	      0.64075283	      5.63368610	     -3.36226561	    -13.78689489	    -14.25363761	    -32.59226650	      3.22937868	     14.24487959	      2.97133261	     -5.41105423	    -14.45339431	    -16.09473618	    -29.97968812	     -7.95543913	     18.95863295	    -46.53429271	     -1.78788462	     -3.79203690	    -36.13050853	     -1.40115452	      3.04974864	    -60.53623095	    -22.46807074	    -18.12424345	     40.30326195	     87.38811925	    -11.34544040	      6.78293180	     28.47920039	    -64.16230519	    -17.37629493	    -23.19745928	     61.67552747	    105.02963150	    -23.21802207	      4.10910419	     66.44104484
      0.77750000	      1.00273671	     19.14563157	     88.61976387	     -0.02104616	      1.19980478	      0.63610574	      5.56379653	     -3.39798895	    -13.60775333	    -14.55315881	    -32.57910592	      3.07589452	     14.27938061	      2.95357763	     -5.41986704	    -14.20334581	    -16.33581730	    -29.85071050	     -7.90788430	     19.12615296	    -46.55575219	     -1.82208226	     -3.87407117	    -36.13369623	     -1.39685547	      3.11145188	    -60.77937942	    -21.93682544	    -19.02074301	     39.97191880	     86.94916632	    -11.40226166	      6.89388932	     28.45090709	    -64.44759489	    -17.24563403	    -23.37591900	     61.42363769	    104.96316294	    -23.33187476	      4.09348701	     66.38867126
      0.78000000	      0.97156868	     19.27749025	     88.64885257	     -0.02113013	      1.18978133	      0.63150908	      5.49779549	     -3.42874901	    -13.41316755	    -14.86145492	    -32.55157168	      2.93339066	     14.31056184	      2.94831632	     -5.42642548	    -13.93812593	    -16.63695857	    -29.72768103	     -7.87137304	     19.28104810	    -46.58969508	     -1.86605480	     -3.97343827	    -36.16010332	     -1.32738125	      3.11749561	    -60.95248948	    -21.52747993	    -19.84734704	     39.64337434	     86.58906161	    -11.52695743	      6.99973238	     28.39205150	    -64.65561338	    -17.07105383	    -23.50212338	     61.10101800	    104.89794237	    -23.43721609	      4.09952043	     66.33667891
